<svg xmlns="http://www.w3.org/2000/svg" viewBox="0 0 4000 4000" width="4000" height="4000">
  <g transform="matrix(1.3333333,0,0,-1.3333333,0,4000)">
    <g transform="translate(2092.4844,1698.0903)">
      <path d="m 0,0 63.721,52.4 c 15.234,11.982 25.861,28.858 30.084,47.773 l 25.166,112.745 c 0.198,0.89 0.433,1.77 0.706,2.64 l 32.811,104.814 c 7.262,23.196 -4.481,48.084 -27.001,57.228 l -510.122,207.133 c -23.345,9.48 -49.924,-2.07 -58.923,-25.606 L -458.76,519.37 c -1.112,-2.91 -2.636,-5.645 -4.523,-8.123 l -35.699,-46.855 c -1.598,-2.097 -3.443,-3.992 -5.497,-5.645 l -101.844,-81.972 -332.722,-249.542 -302.98,-241.121 c -2.748,-2.187 -5.831,-3.916 -9.13,-5.12 l -73.566,-26.858 c -1.382,-0.504 -2.795,-0.915 -4.231,-1.228 l -175.836,-38.387 c -2.475,-0.54 -4.879,-1.367 -7.162,-2.463 l -298.996,-143.529 c -25.344,-12.166 -37.438,-41.483 -28.044,-67.98 l 24.887,-70.196 c 1.096,-3.09 1.72,-6.319 1.85,-9.595 1.151,-28.887 7.63,-177.389 21.263,-234.449 2.186,-9.147 0.323,-18.782 -5.116,-26.454 l -56.717,-79.995 c -19.22,-27.108 5.955,-63.417 38.082,-54.924 l 22.17,5.86 c 1.258,0.333 2.497,0.742 3.707,1.222 l 293.788,116.711 c 2.374,0.942 4.628,2.161 6.717,3.629 l 231.996,163.06 c 2.605,1.831 5.464,3.271 8.486,4.274 l 218.698,72.578 c 39.928,13.251 83.487,-5.196 101.754,-43.093 l 38.39,-79.641 c 0.784,-1.627 1.431,-3.315 1.936,-5.048 l 15.04,-51.66 c 9.006,-30.935 23.865,-59.853 43.77,-85.187 l 8.286,-10.545 c 11.838,-15.067 26.144,-28.019 42.31,-38.306 l 25.238,-16.062 c 3.947,-2.511 5.785,-7.308 4.528,-11.813 l -10.36,-37.121 c -1.586,-5.685 1.767,-11.573 7.467,-13.108 l 311.049,-83.788 c 14.827,-3.994 30.431,2.889 37.48,16.53 l 23.062,44.638 c 2.956,5.72 4.153,12.185 3.442,18.583 l -0.961,8.649 c -1.126,10.138 2.552,20.219 9.942,27.249 l 38.576,36.694 c 1.438,1.368 2.749,2.865 3.916,4.471 l 65.292,89.931 c 0.518,0.715 1.008,1.45 1.467,2.205 l 75.317,123.735 c 7.935,13.037 5.775,29.833 -5.201,40.436 l -51.948,50.187 c -3.154,3.047 -6.891,5.428 -10.987,6.999 l -87.211,33.451 -113.216,45.994 c -6.268,2.547 -11.591,6.978 -15.229,12.683 l -24.936,39.088 c -9.403,14.74 -5.519,34.271 8.808,44.291 l 80.021,55.973" style="fill:none;stroke:#49F2F2;stroke-width:75.76;stroke-linecap:butt;stroke-linejoin:miter;stroke-miterlimit:10"/>
      <g transform="translate(-738.2, -184.9)">
        <path d="M 0,0 21.196,78.494 H 8.634 L -12.563,0 Z m -42.636,107.374 13.338,49.614 H 29.309 L 15.437,104.396 h 40.817 c 7.325,0 13.084,-2.044 17.268,-6.143 4.184,-4.099 6.281,-9.464 6.281,-16.097 0,-2.608 -0.351,-5.408 -1.054,-8.367 L 60.182,4.716 c -2.278,-8.729 -7.154,-16.011 -14.66,-21.845 -7.494,-5.845 -15.606,-8.773 -24.326,-8.773 h -99.424 l 25.575,96.448" style="fill:#49F2F2;fill-rule:nonzero"/>
        <path d="M 0,0 21.196,78.494 H 8.634 L -12.563,0 Z m -42.636,107.374 13.338,49.614 H 29.309 L 15.437,104.396 h 40.817 c 7.325,0 13.084,-2.044 17.268,-6.143 4.184,-4.099 6.281,-9.464 6.281,-16.097 0,-2.608 -0.351,-5.408 -1.054,-8.367 L 60.182,4.716 c -2.278,-8.729 -7.154,-16.011 -14.66,-21.845 -7.494,-5.845 -15.606,-8.773 -24.326,-8.773 h -99.424 l 25.575,96.448" style="fill:none;stroke:#49F2F2;stroke-width:1"/>
        <path d="M 151.228,0 172.414,78.494 H 159.862 L 138.666,0 Z m -51.487,74.84 c 5.076,17.509 21.112,29.556 39.341,29.556 h 67.613 c 7.324,0 13.212,-2.001 17.661,-6.015 4.45,-4.014 6.676,-9.337 6.676,-15.959 0,-2.789 -0.363,-5.674 -1.055,-8.633 L 211.399,4.716 c -2.268,-8.729 -7.196,-16.011 -14.776,-21.845 -7.591,-5.845 -15.662,-8.773 -24.21,-8.773 H 103.607 c -7.324,0 -13.084,2.098 -17.268,6.281 -4.184,4.184 -6.281,9.593 -6.281,16.225 0,2.619 0.352,5.408 1.044,8.368 l 18.055,67.773 c 0.059,0.217 0.115,0.438 0.168,0.661 z" style="fill:#49F2F2;fill-rule:nonzero"/>
        <path d="M 151.228,0 172.414,78.494 H 159.862 L 138.666,0 Z m -51.487,74.84 c 5.076,17.509 21.112,29.556 39.341,29.556 h 67.613 c 7.324,0 13.212,-2.001 17.661,-6.015 4.45,-4.014 6.676,-9.337 6.676,-15.959 0,-2.789 -0.363,-5.674 -1.055,-8.633 L 211.399,4.716 c -2.268,-8.729 -7.196,-16.011 -14.776,-21.845 -7.591,-5.845 -15.662,-8.773 -24.21,-8.773 H 103.607 c -7.324,0 -13.084,2.098 -17.268,6.281 -4.184,4.184 -6.281,9.593 -6.281,16.225 0,2.619 0.352,5.408 1.044,8.368 l 18.055,67.773 c 0.059,0.217 0.115,0.438 0.168,0.661 z" style="fill:none;stroke:#49F2F2;stroke-width:1"/>
        <path d="M 266.548,104.396 h 98.954 c 7.324,0 13.212,-2.001 17.662,-6.015 4.45,-4.014 6.675,-9.337 6.675,-15.959 0,-2.789 -0.352,-5.674 -1.054,-8.633 l -2.353,-8.379 H 327.825 l 3.408,13.084 H 318.67 L 290.671,-25.474 h -58.862 l 23.124,87.211" style="fill:#49F2F2;fill-rule:nonzero;stroke:#49F2F2;stroke-width:1"/>
        <path d="M 454.026,0 475.212,78.494 H 462.66 L 441.463,0 Z m -51.487,74.84 c 5.076,17.509 21.111,29.556 39.341,29.556 h 67.612 c 7.324,0 13.212,-2.001 17.662,-6.015 4.45,-4.014 6.675,-9.337 6.675,-15.959 0,-2.789 -0.362,-5.674 -1.054,-8.633 L 514.187,4.716 C 511.919,-4.013 506.99,-11.295 499.41,-17.129 491.819,-22.974 483.749,-25.902 475.201,-25.902 H 406.395 c -7.324,0 -13.084,2.098 -17.268,6.281 -4.184,4.184 -6.281,9.593 -6.281,16.225 0,2.619 0.351,5.408 1.043,8.368 l 18.056,67.773 c 0.059,0.217 0.115,0.438 0.167,0.661 z" style="fill:#49F2F2;fill-rule:nonzero"/>
        <path d="M 454.026,0 475.212,78.494 H 462.66 L 441.463,0 Z m -51.487,74.84 c 5.076,17.509 21.111,29.556 39.341,29.556 h 67.612 c 7.324,0 13.212,-2.001 17.662,-6.015 4.45,-4.014 6.675,-9.337 6.675,-15.959 0,-2.789 -0.362,-5.674 -1.054,-8.633 L 514.187,4.716 C 511.919,-4.013 506.99,-11.295 499.41,-17.129 491.819,-22.974 483.749,-25.902 475.201,-25.902 H 406.395 c -7.324,0 -13.084,2.098 -17.268,6.281 -4.184,4.184 -6.281,9.593 -6.281,16.225 0,2.619 0.351,5.408 1.043,8.368 l 18.056,67.773 c 0.059,0.217 0.115,0.438 0.167,0.661 z" style="fill:none;stroke:#49F2F2;stroke-width:1"/>
        <path d="M 569.346,104.396 h 98.954 c 7.325,0 13.212,-2.001 17.662,-6.015 4.45,-4.014 6.676,-9.337 6.676,-15.959 0,-2.789 -0.352,-5.674 -1.055,-8.633 l -2.352,-8.379 H 630.623 l 3.407,13.084 H 621.467 L 593.468,-25.474 h -58.862 l 23.125,87.211" style="fill:#49F2F2;fill-rule:nonzero;stroke:#49F2F2;stroke-width:1"/>
        <path d="M 871.832,104.396 h 98.954 c 7.324,0 13.212,-2.001 17.662,-6.015 4.45,-4.014 6.675,-9.337 6.675,-15.959 0,-2.789 -0.352,-5.674 -1.054,-8.633 l -2.353,-8.379 H 933.092 l 3.408,13.084 H 923.937 L 895.938,-25.474 h -58.862 l 23.124,87.211" style="fill:#49F2F2;fill-rule:nonzero;stroke:#49F2F2;stroke-width:1"/>
        <path d="M 757.865,0 779.061,78.494 H 766.499 L 745.313,0 Z M 799.934,-25.902 792.866,-52.708 C 790.949,-59.82 785.627,-65.984 776.907,-71.201 769.231,-75.885 762.003,-78.227 755.2,-78.227 H 655.51 l 7.069,25.901 h 71.425 l 7.057,26.424 h -40.805 c -7.155,0 -12.872,2.098 -17.141,6.281 -4.28,4.184 -6.409,9.593 -6.409,16.225 0,2.619 0.341,5.408 1.044,8.368 l 18.577,68.817 c 2.437,8.889 7.409,16.224 14.915,21.973 7.495,5.759 15.777,8.634 24.848,8.634 H 854.992 L 829.524,10.205" style="fill:#49F2F2;fill-rule:nonzero"/>
        <path d="M 757.865,0 779.061,78.494 H 766.499 L 745.313,0 Z M 799.934,-25.902 792.866,-52.708 C 790.949,-59.82 785.627,-65.984 776.907,-71.201 769.231,-75.885 762.003,-78.227 755.2,-78.227 H 655.51 l 7.069,25.901 h 71.425 l 7.057,26.424 h -40.805 c -7.155,0 -12.872,2.098 -17.141,6.281 -4.28,4.184 -6.409,9.593 -6.409,16.225 0,2.619 0.341,5.408 1.044,8.368 l 18.577,68.817 c 2.437,8.889 7.409,16.224 14.915,21.973 7.495,5.759 15.777,8.634 24.848,8.634 H 854.992 L 829.524,10.205" style="fill:none;stroke:#49F2F2;stroke-width:1"/>
        <path d="M 1029.095,104.396 H 1087.797 L 1052.995,-25.902 h -58.862 l 26.424,98.647" style="fill:#49F2F2;fill-rule:nonzero;stroke:#49F2F2;stroke-width:1"/>
        <path d="M 1130.504,104.372 1229.593,104.396 c 7.324,0 13.212,-2.001 17.662,-6.015 4.449,-4.013 6.675,-9.336 6.675,-15.958 0,-2.789 -0.352,-5.675 -1.054,-8.634 l -26.68,-99.69 h -60.038 l 27.999,94.496 h -12.817 l -27.999,-104.396 h -58.607 l 24.755,93.36" style="fill:#49F2F2;fill-rule:nonzero;stroke:#49F2F2;stroke-width:1"/>
        <path d="M 1325.61,0 1346.806,78.494 H 1334.249 L 1313.063,0 Z M 1367.684,-25.902 1360.616,-52.708 C 1358.699,-59.82 1353.377,-65.984 1344.657,-71.201 1336.982,-75.885 1329.753,-78.227 1322.951,-78.227 H 1223.26 l 7.069,25.901 h 71.424 l 7.058,26.424 h -40.806 c -7.154,0 -12.871,2.098 -17.14,6.281 -4.28,4.184 -6.409,9.593 -6.409,16.225 0,2.619 0.341,5.408 1.043,8.368 l 18.578,68.817 c 2.437,8.889 7.409,16.224 14.915,21.973 7.495,5.759 15.777,8.634 24.848,8.634 H 1422.742 L 1396.585,7.655" style="fill:#49F2F2;fill-rule:nonzero"/>
        <path d="M 1325.61,0 1346.806,78.494 H 1334.249 L 1313.063,0 Z M 1367.684,-25.902 1360.616,-52.708 C 1358.699,-59.82 1353.377,-65.984 1344.657,-71.201 1336.982,-75.885 1329.753,-78.227 1322.951,-78.227 H 1223.26 l 7.069,25.901 h 71.424 l 7.058,26.424 h -40.806 c -7.154,0 -12.871,2.098 -17.14,6.281 -4.28,4.184 -6.409,9.593 -6.409,16.225 0,2.619 0.341,5.408 1.043,8.368 l 18.578,68.817 c 2.437,8.889 7.409,16.224 14.915,21.973 7.495,5.759 15.777,8.634 24.848,8.634 H 1422.742 L 1396.585,7.655" style="fill:none;stroke:#49F2F2;stroke-width:1"/>
        <path d="M 459.041,119.13 h -38.536 l 7.234,29.018 c 1.395,5.594 6.419,9.519 12.184,9.519 H 487.185 Z" style="fill:#49F2F2;fill-rule:nonzero"/>
        <path d="M 459.041,119.13 h -38.536 l 7.234,29.018 c 1.395,5.594 6.419,9.519 12.184,9.519 H 487.185 Z" style="fill:none;stroke:#49F2F2;stroke-width:1"/>
        <path d="M 534.446,119.13 h -38.537 l 7.235,29.018 c 1.395,5.594 6.419,9.519 12.184,9.519 H 562.59 Z" style="fill:#49F2F2;fill-rule:nonzero"/>
        <path d="M 534.446,119.13 h -38.537 l 7.235,29.018 c 1.395,5.594 6.419,9.519 12.184,9.519 H 562.59 Z" style="fill:none;stroke:#49F2F2;stroke-width:1"/>
        <path d="M 1081.469,119.13 h -38.537 l 7.235,29.018 c 1.395,5.594 6.419,9.519 12.184,9.519 H 1109.613 Z" style="fill:#49F2F2;fill-rule:nonzero"/>
        <path d="M 1081.469,119.13 h -38.537 l 7.235,29.018 c 1.395,5.594 6.419,9.519 12.184,9.519 H 1109.613 Z" style="fill:none;stroke:#49F2F2;stroke-width:1"/>
        <path d="M 347.494,-134.975 449.565,-60.457 323.485,-60.767 304.437,-73.069" style="fill:#49F2F2;fill-rule:nonzero"/>
        <path d="M 762.319,154.685 H 638.132 L 718.969,216.669 771.115,202.847 Z" style="fill:#49F2F2;fill-rule:nonzero"/>
      </g>
    </g>
  </g>
</svg>